<svg xmlns="http://www.w3.org/2000/svg" version="1.1" xmlns:xlink="http://www.w3.org/1999/xlink" xmlns:svgjs="http://svgjs.dev/svgjs" width="1440" height="560" preserveAspectRatio="none" viewBox="0 0 1440 560">
    <g mask="url(&quot;#SvgjsMask1018&quot;)" fill="none">
        <rect width="1440" height="560" x="0" y="0" fill="#0e2a47"></rect>
        <path d="M1062.184,407.965C1082.975,407.763,1099.341,391.638,1108.799,373.122C1117.377,356.33,1116.078,336.864,1106.926,320.378C1097.465,303.336,1081.663,289.858,1062.184,289.154C1041.539,288.408,1021.673,298.967,1011.472,316.93C1001.386,334.69,1004.038,356.2,1013.977,374.042C1024.226,392.44,1041.125,408.169,1062.184,407.965" fill="rgba(28, 83, 142, 0.4)" class="triangle-float3"></path>
        <path d="M992.707,526.136C1033.809,526.279,1076.482,515.267,1098.281,480.422C1121.258,443.693,1120.442,395.699,1097.163,359.161C1075.371,324.957,1033.263,314.75,992.707,314.715C952.073,314.68,909.652,324.635,887.937,358.98C864.889,395.432,865.493,443.15,888.397,479.692C910.061,514.257,951.914,525.994,992.707,526.136" fill="rgba(28, 83, 142, 0.4)" class="triangle-float3"></path>
        <path d="M136.97,303.974C165.018,301.707,189.189,287.423,204.867,264.056C223.016,237.006,237.918,204.097,223.618,174.829C207.948,142.757,172.657,125.833,136.97,125.087C99.862,124.311,62.747,139.148,43.812,171.071C24.53,203.579,25.278,245.866,46.972,276.816C66.249,304.318,103.494,306.679,136.97,303.974" fill="rgba(28, 83, 142, 0.4)" class="triangle-float1"></path>
        <path d="M1223.583,287.005C1262.177,286.242,1299.416,271.945,1320.767,239.785C1344.706,203.726,1356.705,156.795,1334.818,119.455C1313.108,82.417,1266.407,70.953,1223.583,73.989C1186.047,76.65,1156.347,101.421,1136.681,133.503C1115.845,167.492,1099.87,209.069,1119.511,243.762C1139.347,278.8,1183.328,287.801,1223.583,287.005" fill="rgba(28, 83, 142, 0.4)" class="triangle-float3"></path>
        <path d="M1027.6,393.063C1080.222,389.951,1126.604,362.076,1154.085,317.092C1182.929,269.878,1197.142,210.044,1168.225,162.875C1140.222,117.196,1081.163,112.076,1027.6,110.768C970.63,109.376,907.125,108.943,874.549,155.701C838.182,207.901,837.771,280.29,872.247,333.758C904.441,383.687,968.295,396.57,1027.6,393.063" fill="rgba(28, 83, 142, 0.4)" class="triangle-float1"></path>
        <path d="M984.158,180.135C1009.62,180.631,1035.437,168.874,1046.773,146.069C1057.244,125.003,1046.375,101.085,1033.11,81.656C1021.819,65.118,1004.18,54.684,984.158,54.357C963.508,54.019,943.671,62.732,932.354,80.009C919.814,99.153,915.112,123.385,925.628,143.711C936.946,165.586,959.534,179.656,984.158,180.135" fill="rgba(28, 83, 142, 0.4)" class="triangle-float2"></path>
        <path d="M1268.942,206.636C1306.662,205.641,1339.121,184.156,1359.613,152.472C1382.395,117.248,1399.47,73.199,1378.886,36.647C1358.048,-0.355,1311.377,-10.159,1268.942,-8.534C1229.697,-7.031,1192.845,10.844,1172.677,44.544C1151.95,79.18,1148.98,122.778,1169.591,157.483C1189.812,191.532,1229.355,207.68,1268.942,206.636" fill="rgba(28, 83, 142, 0.4)" class="triangle-float3"></path>
        <path d="M42.744,585.718C83.198,588.558,124.628,572.833,145.875,538.291C168.048,502.244,165.827,456.554,144.777,419.84C123.614,382.928,85.292,358.699,42.744,358.415C-0.289,358.128,-42.935,379.723,-61.675,418.462C-78.711,453.679,-58.741,492.194,-38.023,525.379C-18.949,555.932,6.814,583.195,42.744,585.718" fill="rgba(28, 83, 142, 0.4)" class="triangle-float3"></path>
        <path d="M1007.947,427.392C1024.614,427.474,1039.718,418.046,1048.101,403.641C1056.536,389.146,1056.75,371.623,1049.077,356.711C1040.648,340.33,1026.359,326.229,1007.947,325.606C988.615,324.952,970.465,336.514,961.698,353.756C953.609,369.665,958.977,388.137,968.469,403.25C977.262,417.25,991.415,427.311,1007.947,427.392" fill="rgba(28, 83, 142, 0.4)" class="triangle-float2"></path>
    </g>
    <defs>
        <mask id="SvgjsMask1018">
            <rect width="1440" height="560" fill="#ffffff"></rect>
        </mask>
        <style>
            @keyframes float1 {
                    0%{transform: translate(0, 0)}
                    50%{transform: translate(-10px, 0)}
                    100%{transform: translate(0, 0)}
                }

                .triangle-float1 {
                    animation: float1 5s infinite;
                }

                @keyframes float2 {
                    0%{transform: translate(0, 0)}
                    50%{transform: translate(-5px, -5px)}
                    100%{transform: translate(0, 0)}
                }

                .triangle-float2 {
                    animation: float2 4s infinite;
                }

                @keyframes float3 {
                    0%{transform: translate(0, 0)}
                    50%{transform: translate(0, -10px)}
                    100%{transform: translate(0, 0)}
                }

                .triangle-float3 {
                    animation: float3 6s infinite;
                }
        </style>
    </defs>
</svg>